<svg width="427" height="182" viewBox="0 0 427 182" fill="none" xmlns="http://www.w3.org/2000/svg">
<g filter="url(#filter0_d_2679_2621)">
<path d="M120.2 91C123.692 95.0423 125.626 100.269 125.632 105.687C125.593 111.643 123.267 117.34 119.163 121.524C115.059 125.708 109.515 128.038 103.749 128H54V54.0005H103.749C109.512 53.9613 115.053 56.287 119.157 60.4665C123.26 64.6461 125.589 70.3375 125.632 76.2901C125.63 81.7158 123.696 86.9512 120.2 91Z" fill="black"/>
<path d="M197.891 116.607C201.217 120.405 204.542 124.202 207.868 128H136.245L136.255 105.126C148.422 105.127 160.59 105.129 172.756 105.13C176.266 104.941 179.57 103.365 181.986 100.728C184.402 98.0912 185.745 94.5956 185.735 90.9646C185.726 87.3337 184.366 83.8454 181.937 81.2216C179.508 78.5979 176.195 77.0397 172.685 76.8694H136.245V54.017L172.685 54C180.582 54.2097 188.203 57.0472 194.415 62.0906C207.443 72.8402 207.86 88.8453 207.877 90.6004C207.863 100.265 204.293 109.561 197.891 116.607Z" fill="black"/>
<path d="M290.158 54V90.9875C290.161 95.8469 289.237 100.659 287.438 105.15C285.64 109.64 283.002 113.721 279.676 117.158C276.35 120.595 272.4 123.322 268.053 125.182C263.706 127.042 259.047 128 254.341 128C249.636 128 244.977 127.042 240.63 125.182C236.283 123.322 232.333 120.595 229.007 117.158C225.681 113.721 223.043 109.64 221.245 105.15C219.446 100.659 218.522 95.8469 218.525 90.9875V54H240.668V90.9875C240.66 91.2506 240.675 91.5139 240.712 91.7744C240.901 95.3756 242.419 98.765 244.954 101.245C247.49 103.725 250.849 105.108 254.341 105.108C257.834 105.108 261.193 103.725 263.728 101.245C266.264 98.765 267.782 95.3756 267.971 91.7744C268.008 91.5139 268.023 91.2506 268.015 90.9875V54H290.158Z" fill="black"/>
<path d="M372.438 54V127.904C364.932 127.932 357.427 127.961 349.921 127.99L322.942 103.969V128H300.806V54.0908C317.305 68.779 333.803 83.4672 350.302 98.1555C350.305 83.4695 350.308 68.7834 350.312 54.0974L372.438 54Z" fill="black"/>
</g>
<defs>
<filter id="filter0_d_2679_2621" x="0" y="0" width="426.438" height="182" filterUnits="userSpaceOnUse" color-interpolation-filters="sRGB">
<feFlood flood-opacity="0" result="BackgroundImageFix"/>
<feColorMatrix in="SourceAlpha" type="matrix" values="0 0 0 0 0 0 0 0 0 0 0 0 0 0 0 0 0 0 127 0" result="hardAlpha"/>
<feOffset/>
<feGaussianBlur stdDeviation="27"/>
<feComposite in2="hardAlpha" operator="out"/>
<feColorMatrix type="matrix" values="0 0 0 0 0 0 0 0 0 0 0 0 0 0 0 0 0 0 0.15 0"/>
<feBlend mode="normal" in2="BackgroundImageFix" result="effect1_dropShadow_2679_2621"/>
<feBlend mode="normal" in="SourceGraphic" in2="effect1_dropShadow_2679_2621" result="shape"/>
</filter>
</defs>
</svg>
