<svg width="65" height="68" viewBox="0 0 65 68" fill="none" xmlns="http://www.w3.org/2000/svg">
<g filter="url(#filter0_d_2666_884)">
<path fill-rule="evenodd" clip-rule="evenodd" d="M35.4532 32.5H29.4589C27.6946 32.5905 26.1316 33.7037 25.4223 35.375C24.5668 37.11 25.0256 38.75 27.0112 38.75H37.9012C39.888 38.75 40.3465 37.11 39.4898 35.375C38.7805 33.7037 37.2175 32.5905 35.4532 32.5Z" stroke="white" stroke-width="2" stroke-linecap="round" stroke-linejoin="round"/>
<path fill-rule="evenodd" clip-rule="evenodd" d="M36.0862 25C36.0862 27.0711 34.461 28.75 32.4562 28.75C30.4514 28.75 28.8262 27.0711 28.8262 25C28.8262 22.9289 30.4514 21.25 32.4562 21.25C33.4189 21.25 34.3422 21.6451 35.023 22.3483C35.7037 23.0516 36.0862 24.0054 36.0862 25Z" stroke="white" stroke-width="2" stroke-linecap="round" stroke-linejoin="round"/>
</g>
<defs>
<filter id="filter0_d_2666_884" x="0.0117188" y="0.25" width="64.8906" height="67.5" filterUnits="userSpaceOnUse" color-interpolation-filters="sRGB">
<feFlood flood-opacity="0" result="BackgroundImageFix"/>
<feColorMatrix in="SourceAlpha" type="matrix" values="0 0 0 0 0 0 0 0 0 0 0 0 0 0 0 0 0 0 127 0" result="hardAlpha"/>
<feOffset dy="4"/>
<feGaussianBlur stdDeviation="12"/>
<feComposite in2="hardAlpha" operator="out"/>
<feColorMatrix type="matrix" values="0 0 0 0 0 0 0 0 0 0 0 0 0 0 0 0 0 0 0.35 0"/>
<feBlend mode="normal" in2="BackgroundImageFix" result="effect1_dropShadow_2666_884"/>
<feBlend mode="normal" in="SourceGraphic" in2="effect1_dropShadow_2666_884" result="shape"/>
</filter>
</defs>
</svg>
