<svg width="65" height="68" viewBox="0 0 65 68" fill="none" xmlns="http://www.w3.org/2000/svg">
<g filter="url(#filter0_d_2679_2632)">
<path fill-rule="evenodd" clip-rule="evenodd" d="M35.4522 32.5H29.4579C27.6936 32.5905 26.1306 33.7037 25.4213 35.375C24.5659 37.11 25.0246 38.75 27.0102 38.75H37.9002C39.8871 38.75 40.3455 37.11 39.4888 35.375C38.7796 33.7037 37.2165 32.5905 35.4522 32.5Z" stroke="black" stroke-width="2" stroke-linecap="round" stroke-linejoin="round"/>
<path fill-rule="evenodd" clip-rule="evenodd" d="M36.0852 25C36.0852 27.0711 34.46 28.75 32.4552 28.75C30.4504 28.75 28.8252 27.0711 28.8252 25C28.8252 22.9289 30.4504 21.25 32.4552 21.25C33.4179 21.25 34.3412 21.6451 35.022 22.3483C35.7028 23.0516 36.0852 24.0054 36.0852 25Z" stroke="black" stroke-width="2" stroke-linecap="round" stroke-linejoin="round"/>
</g>
<defs>
<filter id="filter0_d_2679_2632" x="0.0102539" y="0.25" width="64.8906" height="67.5" filterUnits="userSpaceOnUse" color-interpolation-filters="sRGB">
<feFlood flood-opacity="0" result="BackgroundImageFix"/>
<feColorMatrix in="SourceAlpha" type="matrix" values="0 0 0 0 0 0 0 0 0 0 0 0 0 0 0 0 0 0 127 0" result="hardAlpha"/>
<feOffset dy="4"/>
<feGaussianBlur stdDeviation="12"/>
<feComposite in2="hardAlpha" operator="out"/>
<feColorMatrix type="matrix" values="0 0 0 0 0 0 0 0 0 0 0 0 0 0 0 0 0 0 0.35 0"/>
<feBlend mode="normal" in2="BackgroundImageFix" result="effect1_dropShadow_2679_2632"/>
<feBlend mode="normal" in="SourceGraphic" in2="effect1_dropShadow_2679_2632" result="shape"/>
</filter>
</defs>
</svg>
