<svg width="427" height="158" viewBox="0 0 427 158" fill="none" xmlns="http://www.w3.org/2000/svg">
<g filter="url(#filter0_d_3036_679)">
<path d="M120.2 67C123.692 71.0423 125.626 76.2691 125.632 81.6873C125.593 87.6435 123.267 93.34 119.163 97.5242C115.059 101.708 109.515 104.038 103.749 104H54V30.0005H103.749C109.512 29.9613 115.053 32.287 119.157 36.4665C123.26 40.6461 125.589 46.3375 125.632 52.2901C125.63 57.7158 123.696 62.9512 120.2 67Z" fill="white"/>
<path d="M197.892 92.6071C201.218 96.4047 204.543 100.202 207.869 104H136.246L136.256 81.1259C148.423 81.1272 160.591 81.1286 172.757 81.1301C176.267 80.9409 179.571 79.3648 181.987 76.728C184.403 74.0912 185.746 70.5956 185.736 66.9646C185.727 63.3337 184.367 59.8454 181.938 57.2216C179.509 54.5979 176.196 53.0397 172.686 52.8694H136.246V30.017L172.686 30C180.583 30.2097 188.204 33.0472 194.416 38.0906C207.444 48.8402 207.861 64.8453 207.878 66.6004C207.864 76.2645 204.294 85.5614 197.892 92.6071Z" fill="white"/>
<path d="M290.158 30V66.9875C290.161 71.8469 289.237 76.6593 287.438 81.1497C285.64 85.6401 283.002 89.7205 279.676 93.1578C276.35 96.595 272.4 99.3217 268.053 101.182C263.706 103.042 259.047 104 254.341 104C249.636 104 244.977 103.042 240.63 101.182C236.283 99.3217 232.333 96.595 229.007 93.1578C225.681 89.7205 223.043 85.6401 221.245 81.1497C219.446 76.6593 218.522 71.8469 218.525 66.9875V30H240.668V66.9875C240.66 67.2506 240.675 67.5139 240.712 67.7744C240.901 71.3756 242.419 74.765 244.954 77.2452C247.49 79.7254 250.849 81.1078 254.341 81.1078C257.834 81.1078 261.193 79.7254 263.728 77.2452C266.264 74.765 267.782 71.3756 267.971 67.7744C268.008 67.5139 268.023 67.2506 268.015 66.9875V30H290.158Z" fill="white"/>
<path d="M372.437 30V103.904C364.931 103.932 357.426 103.961 349.92 103.99L322.941 79.9687V104H300.805V30.0908C317.304 44.779 333.802 59.4672 350.301 74.1555C350.304 59.4695 350.307 44.7834 350.311 30.0974L372.437 30Z" fill="white"/>
</g>
<defs>
<filter id="filter0_d_3036_679" x="0" y="-24" width="426.438" height="182" filterUnits="userSpaceOnUse" color-interpolation-filters="sRGB">
<feFlood flood-opacity="0" result="BackgroundImageFix"/>
<feColorMatrix in="SourceAlpha" type="matrix" values="0 0 0 0 0 0 0 0 0 0 0 0 0 0 0 0 0 0 127 0" result="hardAlpha"/>
<feOffset/>
<feGaussianBlur stdDeviation="27"/>
<feComposite in2="hardAlpha" operator="out"/>
<feColorMatrix type="matrix" values="0 0 0 0 0 0 0 0 0 0 0 0 0 0 0 0 0 0 0.15 0"/>
<feBlend mode="normal" in2="BackgroundImageFix" result="effect1_dropShadow_3036_679"/>
<feBlend mode="normal" in="SourceGraphic" in2="effect1_dropShadow_3036_679" result="shape"/>
</filter>
</defs>
</svg>
